Coordinates
version=1
nRows=20
nColumns=34
inDegrees=yes

Units are S.I. units (second, meters, Newtons, ...)
Angles are in degrees.

endheader
time	pelvis_tilt	pelvis_list	pelvis_rotation	pelvis_tx	pelvis_ty	pelvis_tz	hip_flexion_r	hip_adduction_r	hip_rotation_r	knee_angle_r	ankle_angle_r	subtalar_angle_r	mtp_angle_r	hip_flexion_l	hip_adduction_l	hip_rotation_l	knee_angle_l	socket_flexion	socket_adduction	socket_rotation	socket_tx	socket_ty	socket_tz	pros_ankle_rx	pros_ankle_ry	pros_ankle_rz	pros_ankle_tx	pros_ankle_ty	pros_ankle_tz	foot_flex	lumbar_extension	lumbar_bending	lumbar_rotation
      0.90416667	      2.38335368	     -8.49644554	     10.13319215	      0.45871514	      1.04731773	      0.34954512	      8.10594833	     10.48075872	    -18.63106951	    -18.54223197	      7.64819249	     18.63728608	     16.81654905	     19.70862458	    -12.06279883	      7.68186048	    -57.01803996	     20.89757426	      0.24839578	     -5.75833320	      0.00000000	      0.00160907	      0.00000000	      0.00000000	      0.00000000	      0.00000000	      0.00000000	      0.00000000	      0.00000000	      9.12221625	    -13.08340454	      6.65192059	    -29.17603830
      0.90833333	      2.31501345	     -8.40304487	     10.01085694	      0.46366685	      1.04831780	      0.34971860	      7.79685355	     10.42904102	    -18.58391406	    -18.44220548	      7.66295817	     18.71322989	     16.85299408	     20.17610849	    -11.83553110	      7.74833944	    -56.67124954	     20.68477867	      0.37256815	     -5.45948599	      0.00000000	      0.00142519	      0.00000000	      0.00000000	      0.00000000	      0.00000000	      0.00000000	      0.00000000	      0.00000000	      8.97205647	    -13.15830590	      6.58793210	    -29.10857967
      0.91250000	      2.26110822	     -8.29553354	      9.93178172	      0.46900588	      1.04943173	      0.34995954	      7.23812563	     10.43837911	    -18.52657959	    -17.91998122	      7.51277103	     18.99586112	     16.98683097	     20.55170145	    -11.60984797	      7.84070783	    -56.25155968	     20.39757566	      0.52121627	     -5.16633382	      0.00000000	      0.00109740	      0.00000000	      0.00000000	      0.00000000	      0.00000000	      0.00000000	      0.00000000	      0.00000000	      8.84692205	    -12.96445932	      6.29790930	    -28.91733954
      0.91666667	      2.26583858	     -8.21236009	      9.85925440	      0.47420944	      1.05063939	      0.35015139	      6.66868855	     10.46583859	    -18.49467717	    -17.47017876	      7.32325484	     19.21796204	     17.15442679	     20.86977807	    -11.41147635	      7.90920391	    -55.80732681	     20.08867291	      0.60888464	     -4.85264272	      0.00000000	      0.00083043	      0.00000000	      0.00000000	      0.00000000	      0.00000000	      0.00000000	      0.00000000	      0.00000000	      8.72140439	    -12.94091383	      6.16133832	    -28.79051528
      0.92083333	      2.31110714	     -8.12158123	      9.79328891	      0.47940575	      1.05188593	      0.35031661	      6.02973118	     10.49371311	    -18.44813647	    -16.96887248	      7.10222912	     19.42687009	     17.37294002	     21.13039493	    -11.21347360	      7.95979983	    -55.33212576	     19.76485438	      0.68423160	     -4.53509288	      0.00000000	      0.00053875	      0.00000000	      0.00000000	      0.00000000	      0.00000000	      0.00000000	      0.00000000	      0.00000000	      8.57111754	    -12.96926361	      6.04395505	    -28.66820204
      0.92500000	      2.65405543	     -8.00276371	      9.76966319	      0.48459025	      1.05370145	      0.35051830	      4.91684407	     10.62333513	    -18.28538746	    -16.13010922	      6.60020576	     19.34837730	     18.41769728	     21.00364523	    -11.04730909	      7.87573276	    -54.82762285	     19.27190315	      0.55926165	     -4.16397105	      0.00000000	      0.00010426	      0.00000000	      0.00000000	      0.00000000	      0.00000000	      0.00000000	      0.00000000	      0.00000000	      8.36776976	    -13.42737055	      5.96885052	    -28.60858331
      0.92916667	      2.55761179	     -7.93432435	      9.64475937	      0.48966282	      1.05466596	      0.35074223	      4.53918097	     10.61810715	    -18.20960524	    -15.83930410	      6.49565542	     19.52637194	     18.51210194	     21.40062478	    -10.84813044	      7.96538237	    -54.30658105	     18.93957236	      0.70904750	     -3.89782806	      0.00000000	     -0.00011546	      0.00000000	      0.00000000	      0.00000000	      0.00000000	      0.00000000	      0.00000000	      0.00000000	      8.22101419	    -13.29152628	      5.79258452	    -28.44165551
      0.93333333	      2.52967727	     -7.86280170	      9.52645581	      0.49476662	      1.05578651	      0.35095090	      4.01876714	     10.64446196	    -18.11351227	    -15.40379866	      6.25615961	     19.72417065	     18.66946711	     21.68622318	    -10.65735987	      8.01094177	    -53.73532231	     18.56654875	      0.78485160	     -3.64154217	      0.00000000	     -0.00037078	      0.00000000	      0.00000000	      0.00000000	      0.00000000	      0.00000000	      0.00000000	      0.00000000	      8.05218288	    -13.24643237	      5.68254863	    -28.27332659
      0.93750000	      2.50719743	     -7.78013323	      9.40467609	      0.49987285	      1.05688857	      0.35118861	      3.49166162	     10.65775020	    -18.01143492	    -14.97785325	      6.08281143	     19.88290341	     18.80532814	     21.93876164	    -10.46650707	      8.04513785	    -53.12534124	     18.17528626	      0.87247566	     -3.40917759	      0.00000000	     -0.00063299	      0.00000000	      0.00000000	      0.00000000	      0.00000000	      0.00000000	      0.00000000	      0.00000000	      7.90187774	    -13.20206038	      5.53008178	    -28.12058246
      0.94166667	      2.74759397	     -7.68926598	      9.32543036	      0.50500056	      1.05846964	      0.35145718	      2.51062383	     10.79076098	    -17.74945490	    -14.18368775	      5.61525194	     19.75137743	     19.38706389	     21.86394648	    -10.31886565	      7.94725149	    -52.48372578	     17.66872731	      0.75345686	     -3.08615789	      0.00000000	     -0.00098967	      0.00000000	      0.00000000	      0.00000000	      0.00000000	      0.00000000	      0.00000000	      0.00000000	      7.68788756	    -13.52758390	      5.43488290	    -27.97596054
      0.94583333	      2.70261971	     -7.70255825	      9.18883587	      0.50961731	      1.05932477	      0.35154009	      2.28599513	     10.80919657	    -17.71779356	    -14.21847491	      5.60640867	     19.78660261	     19.39859424	     22.21877248	    -10.17102905	      8.05391787	    -51.90592236	     17.28799671	      0.78891914	     -2.94224246	      0.00000000	     -0.00104173	      0.00000000	      0.00000000	      0.00000000	      0.00000000	      0.00000000	      0.00000000	      0.00000000	      7.64991630	    -13.58254041	      5.44299201	    -27.94219805
      0.95000000	      2.73674298	     -7.54108309	      9.04789733	      0.51515349	      1.06070940	      0.35198572	      1.36360033	     10.86481436	    -17.40005827	    -13.19397353	      5.12429563	     19.88065965	     19.79327333	     22.22961422	     -9.97350139	      7.93080703	    -51.10813229	     16.76594422	      0.81820395	     -2.65211369	      0.00000000	     -0.00147968	      0.00000000	      0.00000000	      0.00000000	      0.00000000	      0.00000000	      0.00000000	      0.00000000	      7.32486412	    -13.52341991	      5.19155791	    -27.60650778
      0.95416667	      2.64086627	     -7.47584651	      8.86530346	      0.52012732	      1.06158044	      0.35222550	      1.00076455	     10.84556927	    -17.25309902	    -12.92683930	      4.98023229	     20.04144057	     19.84729545	     22.49269736	     -9.78938693	      8.00299789	    -50.37993781	     16.33444289	      0.96048807	     -2.56509632	      0.00000000	     -0.00176334	      0.00000000	      0.00000000	      0.00000000	      0.00000000	      0.00000000	      0.00000000	      0.00000000	      7.15305438	    -13.38754795	      5.02931881	    -27.46625410
      0.95833333	      2.54548162	     -7.45299028	      8.71411698	      0.52493241	      1.06241516	      0.35235524	      0.71661442	     10.84179478	    -17.18977606	    -12.77134393	      4.91620476	     20.13743493	     19.87359529	     22.79237123	     -9.63050544	      8.07756625	    -49.63938151	     15.91806422	      1.02865761	     -2.42330890	      0.00000000	     -0.00191139	      0.00000000	      0.00000000	      0.00000000	      0.00000000	      0.00000000	      0.00000000	      0.00000000	      6.96472091	    -13.38496547	      5.02312558	    -27.36964228
      0.96250000	      2.46802854	     -7.37062940	      8.53435790	      0.53011350	      1.06334912	      0.35262894	      0.20731875	     10.84419245	    -17.00295194	    -12.27551127	      4.67567506	     20.38722479	     19.92767012	     22.94046584	     -9.44914207	      8.09920587	    -48.80329830	     15.42910519	      1.11724375	     -2.34896640	      0.00000000	     -0.00224223	      0.00000000	      0.00000000	      0.00000000	      0.00000000	      0.00000000	      0.00000000	      0.00000000	      6.79185064	    -13.18104831	      4.80508597	    -27.13120288
      0.96666667	      2.51185221	     -7.29677292	      8.38102409	      0.53522544	      1.06446383	      0.35291657	     -0.50337405	     10.90202311	    -16.75855522	    -11.61002539	      4.24348183	     20.48094349	     20.07953337	     22.97893626	     -9.29310967	      8.02377774	    -47.97654186	     14.91330888	      1.02959202	     -2.16415929	      0.00000000	     -0.00236005	      0.00000000	      0.00000000	      0.00000000	      0.00000000	      0.00000000	      0.00000000	      0.00000000	      6.63629354	    -13.27868383	      4.66932276	    -26.87395389
      0.97083333	      2.55320849	     -7.23798636	      8.22110505	      0.54022324	      1.06554158	      0.35319745	     -1.14432663	     10.96904866	    -16.48532488	    -11.05129107	      3.94383822	     20.43461092	     20.26745344	     22.99332486	     -9.15238046	      7.98823153	    -47.08929701	     14.38972615	      1.00115566	     -2.04887242	      0.00000000	     -0.00259146	      0.00000000	      0.00000000	      0.00000000	      0.00000000	      0.00000000	      0.00000000	      0.00000000	      6.40552788	    -13.31723660	      4.55903131	    -26.68688838
      0.97500000	      2.46864804	     -7.21252242	      8.04826363	      0.54513730	      1.06630782	      0.35332771	     -1.50454037	     10.97521843	    -16.35733503	    -10.79553633	      3.86387438	     20.50769348	     20.32984443	     23.15963117	     -9.01098285	      8.04332021	    -46.20030460	     13.88961788	      1.05882284	     -2.01652579	      0.00000000	     -0.00283305	      0.00000000	      0.00000000	      0.00000000	      0.00000000	      0.00000000	      0.00000000	      0.00000000	      6.21483507	    -13.20563480	      4.51014944	    -26.56967124
      0.97916667	      2.43991685	     -7.14418702	      7.86945745	      0.55023089	      1.06720672	      0.35362040	     -2.12248356	     11.01691929	    -16.07810162	    -10.15097886	      3.46532572	     20.57248990	     20.48443111	     23.21671233	     -8.85811189	      7.99772144	    -45.28082446	     13.34612865	      1.02175281	     -1.90671451	      0.00000000	     -0.00290979	      0.00000000	      0.00000000	      0.00000000	      0.00000000	      0.00000000	      0.00000000	      0.00000000	      6.02654175	    -13.20849709	      4.34971114	    -26.30218033
      0.98333333	      2.34156357	     -7.16948794	      7.70368258	      0.55496412	      1.06782363	      0.35371669	     -2.36487611	     11.04408999	    -16.03939165	    -10.04865449	      3.44986282	     20.60230037	     20.51739425	     23.41739772	     -8.75550883	      8.07223109	    -44.37241280	     12.84964038	      1.03669686	     -1.88747770	      0.00000000	     -0.00298414	      0.00000000	      0.00000000	      0.00000000	      0.00000000	      0.00000000	      0.00000000	      0.00000000	      5.83492712	    -13.18009480	      4.42514854	    -26.24697514
